<svg width="17" height="17" viewBox="0 0 17 17" fill="none" xmlns="http://www.w3.org/2000/svg">
<path d="M17 8.5C17 13.1941 13.1795 17 8.46729 17C4.35595 17 0.924377 14.1022 0.116614 10.2446L3.5041 11.6634C3.70675 12.6841 4.61335 13.4675 5.71905 13.4583C6.9442 13.4463 7.92689 12.4567 7.93471 11.242L7.93969 11.2398L10.5009 9.33867C12.1392 9.35567 13.4447 8.04029 13.4447 6.44088C13.4447 4.84004 12.1406 3.54167 10.5343 3.54167C8.94583 3.54167 7.65597 4.81029 7.62611 6.38563L5.74891 9.0015C5.27392 8.99158 4.84658 9.12121 4.47541 9.36275L0 7.4885C0.50343 3.27179 4.09926 0 8.46729 0C13.1795 0 17 3.80587 17 8.5ZM5.21277 12.3795L4.1149 11.9198C4.3851 12.5276 4.99377 12.9547 5.71407 12.9519C6.67116 12.9434 7.43626 12.1656 7.42772 11.2129C7.41919 10.2715 6.64271 9.50583 5.69843 9.50583C5.49435 9.50654 5.29312 9.54125 5.08692 9.61917L6.18337 10.0782C6.8219 10.3459 7.12126 11.0776 6.85248 11.713C6.58512 12.3477 5.85059 12.6466 5.21277 12.3795V12.3795ZM10.5343 8.41146C9.44429 8.41146 8.55688 7.52675 8.55688 6.44088C8.55688 5.35429 9.44429 4.47029 10.5343 4.47029C11.6251 4.47029 12.5118 5.35429 12.5118 6.44088C12.5118 7.52675 11.6251 8.41146 10.5343 8.41146ZM10.5343 7.92837C11.3585 7.92837 12.0276 7.26112 12.0276 6.44017C12.0276 5.61992 11.3592 4.95125 10.5343 4.95125C9.70951 4.95125 9.03969 5.61921 9.03969 6.44017C9.0404 7.26112 9.71022 7.92837 10.5343 7.92837V7.92837Z" fill="white"/>
</svg>
