<svg width="30" height="30" viewBox="0 0 30 30" fill="none" xmlns="http://www.w3.org/2000/svg">
<path fill-rule="evenodd" clip-rule="evenodd" d="M6.5 0H23.5C27.0898 0 30 2.91015 30 6.5V23.5C30 27.0898 27.0899 30 23.5 30H6.5C2.91015 30 0 27.0899 0 23.5V6.5C0 2.91015 2.91015 0 6.5 0ZM6.5 2.5C4.29086 2.5 2.5 4.29086 2.5 6.5V23.5C2.5 25.7091 4.29086 27.5 6.5 27.5H23.5C25.7091 27.5 27.5 25.7091 27.5 23.5V6.5C27.5 4.29086 25.7091 2.5 23.5 2.5H6.5Z" fill="#93BEFF"/>
<path d="M8 13.25C8 12.5596 8.55964 12 9.25 12C9.94036 12 10.5 12.5596 10.5 13.25V20.75C10.5 21.4404 9.94036 22 9.25 22C8.55964 22 8 21.4404 8 20.75V13.25Z" fill="#93BEFF"/>
<path d="M19.5 13.25C19.5 12.5596 20.0596 12 20.75 12C21.4404 12 22 12.5596 22 13.25V20.75C22 21.4404 21.4404 22 20.75 22C20.0596 22 19.5 21.4404 19.5 20.75V13.25Z" fill="#93BEFF"/>
<path d="M14 8.75C14 8.05964 14.5596 7.5 15.25 7.5C15.9404 7.5 16.5 8.05964 16.5 8.75V20.75C16.5 21.4404 15.9404 22 15.25 22C14.5596 22 14 21.4404 14 20.75V8.75Z" fill="#93BEFF"/>
</svg>
