<svg width="60" height="60" viewBox="0 0 60 60" fill="none" xmlns="http://www.w3.org/2000/svg">
<path d="M0 4C0 1.79086 1.79086 0 4 0H56C58.2091 0 60 1.79086 60 4V56C60 58.2091 58.2091 60 56 60H4C1.79086 60 0 58.2091 0 56V4Z" fill="#3349FF"/>
<path d="M21.9523 48.6438C20.1488 47.8718 18.6843 46.6968 17.5587 45.1187C16.4496 43.5477 15.7694 41.798 15.518 39.8698C15.2903 37.932 15.573 36.0366 16.3662 34.1835L17.3647 31.8506C17.4426 31.6686 17.5643 31.613 17.7298 31.6838L23.438 34.1271C23.5704 34.1838 23.5976 34.3031 23.5197 34.4851L22.5212 36.818C22.0467 37.9266 22.0082 39.0456 22.4057 40.175C22.8103 41.2879 23.5338 42.0674 24.5762 42.5136C25.6351 42.9668 26.7104 42.9474 27.802 42.4554C28.9006 41.9468 29.6801 41.1548 30.1404 40.0793C30.6716 38.8384 30.3247 37.4076 29.0998 35.787C28.9059 35.5083 28.6435 35.161 28.3124 34.7452C28.005 34.32 27.629 33.8262 27.1845 33.264C26.74 32.7018 26.3084 32.1549 25.8899 31.6233C25.4784 31.0753 25.0765 30.5508 24.6839 30.05C23.2982 28.1648 22.5009 26.2084 22.292 24.1809C22.1068 22.1439 22.4532 20.0996 23.3314 18.0479C24.1388 16.1617 25.3315 14.6558 26.9096 13.5302C28.4806 12.4211 30.1984 11.7468 32.0628 11.5073C33.9509 11.2583 35.7719 11.5091 37.5257 12.2598C39.3292 13.0318 40.7925 14.1867 41.9158 15.7246C43.0319 17.2791 43.7145 19.0004 43.9635 20.8885C44.229 22.7837 43.9617 24.6661 43.1614 26.5357L41.3767 30.7052C41.3201 30.8376 41.2256 30.8755 41.0932 30.8188L35.3849 28.3755C35.2526 28.3188 35.2147 28.2243 35.2714 28.092L37.0064 23.9012C37.5163 22.7099 37.5583 21.5827 37.1325 20.5194C36.7066 19.4562 35.9808 18.705 34.9549 18.2659C33.9125 17.8197 32.8491 17.8344 31.7646 18.3099C30.6801 18.7854 29.9042 19.5692 29.4368 20.6612C28.9623 21.7697 28.7973 22.7955 28.9419 23.7383C29.103 24.6882 29.6672 25.7715 30.6343 26.9881C30.7383 27.111 30.9736 27.4074 31.3401 27.8775C31.7066 28.3476 32.1086 28.8721 32.546 29.4509C33.0071 30.0202 33.4209 30.5399 33.7874 31.01C34.161 31.4636 34.3868 31.7364 34.4649 31.8286C35.7488 33.494 36.585 35.2223 36.9734 37.0135C37.3783 38.8117 37.1524 40.7118 36.2954 42.7138C35.4668 44.6497 34.2765 46.1957 32.7244 47.3521C31.1557 48.5013 29.4274 49.2004 27.5393 49.4494C25.6512 49.6984 23.7889 49.4299 21.9523 48.6438Z" fill="white"/>
</svg>
