<svg width="233" height="60" viewBox="0 0 233 60" fill="none" xmlns="http://www.w3.org/2000/svg">
<path d="M82.222 39.478C83.058 39.478 83.742 39.4147 84.274 39.288C84.8313 39.136 85.2747 38.946 85.604 38.718C85.9333 38.4647 86.1613 38.1733 86.288 37.844C86.4147 37.5147 86.478 37.1473 86.478 36.742C86.478 35.8807 86.0727 35.1713 85.262 34.614C84.4513 34.0313 83.058 33.4107 81.082 32.752C80.2207 32.448 79.3593 32.106 78.498 31.726C77.6367 31.3207 76.864 30.8267 76.18 30.244C75.496 29.636 74.9387 28.914 74.508 28.078C74.0773 27.2167 73.862 26.178 73.862 24.962C73.862 23.746 74.09 22.6567 74.546 21.694C75.002 20.706 75.648 19.87 76.484 19.186C77.32 18.502 78.3333 17.9827 79.524 17.628C80.7147 17.248 82.0573 17.058 83.552 17.058C85.3253 17.058 86.858 17.248 88.15 17.628C89.442 18.008 90.506 18.426 91.342 18.882L89.632 23.556C88.8973 23.176 88.074 22.8467 87.162 22.568C86.2753 22.264 85.1987 22.112 83.932 22.112C82.5133 22.112 81.4873 22.3147 80.854 22.72C80.246 23.1 79.942 23.6953 79.942 24.506C79.942 24.9873 80.056 25.3927 80.284 25.722C80.512 26.0513 80.8287 26.3553 81.234 26.634C81.6647 26.8873 82.146 27.128 82.678 27.356C83.2353 27.5587 83.8433 27.774 84.502 28.002C85.87 28.5087 87.0607 29.0153 88.074 29.522C89.0873 30.0033 89.9233 30.5733 90.582 31.232C91.266 31.8907 91.7727 32.6633 92.102 33.55C92.4313 34.4367 92.596 35.5133 92.596 36.78C92.596 39.2373 91.7347 41.15 90.012 42.518C88.2893 43.8607 85.6927 44.532 82.222 44.532C81.0567 44.532 80.0053 44.456 79.068 44.304C78.1307 44.1773 77.2947 44.0127 76.56 43.81C75.8507 43.6073 75.23 43.392 74.698 43.164C74.1913 42.936 73.7607 42.7207 73.406 42.518L75.078 37.806C75.8633 38.2367 76.826 38.6293 77.966 38.984C79.1313 39.3133 80.55 39.478 82.222 39.478Z" fill="white"/>
<path d="M113.929 24.012C112.789 27.8627 111.599 31.4727 110.357 34.842C109.116 38.2113 107.761 41.4793 106.291 44.646C105.759 45.786 105.227 46.7487 104.695 47.534C104.163 48.3447 103.581 49.0033 102.947 49.51C102.314 50.042 101.592 50.422 100.781 50.65C99.9961 50.9033 99.0714 51.03 98.0074 51.03C97.1208 51.03 96.2974 50.9413 95.5374 50.764C94.8028 50.612 94.1948 50.4347 93.7134 50.232L94.7014 45.71C95.2841 45.9127 95.8034 46.052 96.2594 46.128C96.7154 46.204 97.1968 46.242 97.7034 46.242C98.7168 46.242 99.4894 45.9633 100.021 45.406C100.579 44.874 101.047 44.1267 101.427 43.164C100.135 40.6307 98.8434 37.7933 97.5514 34.652C96.2594 31.4853 95.0434 27.9387 93.9034 24.012H99.9074C100.161 25 100.452 26.0767 100.781 27.242C101.136 28.382 101.503 29.5473 101.883 30.738C102.263 31.9033 102.643 33.0433 103.023 34.158C103.429 35.2727 103.809 36.286 104.163 37.198C104.493 36.286 104.835 35.2727 105.189 34.158C105.544 33.0433 105.886 31.9033 106.215 30.738C106.57 29.5473 106.899 28.382 107.203 27.242C107.533 26.0767 107.824 25 108.077 24.012H113.929Z" fill="white"/>
<path d="M122.703 39.934C123.741 39.934 124.476 39.8327 124.907 39.63C125.337 39.4273 125.553 39.0347 125.553 38.452C125.553 37.996 125.274 37.6033 124.717 37.274C124.159 36.9193 123.311 36.5267 122.171 36.096C121.284 35.7667 120.473 35.4247 119.739 35.07C119.029 34.7153 118.421 34.2973 117.915 33.816C117.408 33.3093 117.015 32.714 116.737 32.03C116.458 31.346 116.319 30.5227 116.319 29.56C116.319 27.6853 117.015 26.2033 118.409 25.114C119.802 24.0247 121.715 23.48 124.147 23.48C125.363 23.48 126.528 23.594 127.643 23.822C128.757 24.0247 129.644 24.2527 130.303 24.506L129.315 28.914C128.656 28.686 127.934 28.4833 127.149 28.306C126.389 28.1287 125.527 28.04 124.565 28.04C122.791 28.04 121.905 28.534 121.905 29.522C121.905 29.75 121.943 29.9527 122.019 30.13C122.095 30.3073 122.247 30.4847 122.475 30.662C122.703 30.814 123.007 30.9913 123.387 31.194C123.792 31.3713 124.299 31.574 124.907 31.802C126.148 32.258 127.174 32.714 127.985 33.17C128.795 33.6007 129.429 34.082 129.885 34.614C130.366 35.1207 130.695 35.6907 130.873 36.324C131.075 36.9573 131.177 37.692 131.177 38.528C131.177 40.504 130.429 41.9987 128.935 43.012C127.465 44.0253 125.375 44.532 122.665 44.532C120.891 44.532 119.409 44.38 118.219 44.076C117.053 43.772 116.243 43.5187 115.787 43.316L116.737 38.718C117.699 39.098 118.687 39.402 119.701 39.63C120.714 39.8327 121.715 39.934 122.703 39.934Z" fill="white"/>
<path d="M148.214 34.158C148.214 32.41 147.821 31.0167 147.036 29.978C146.251 28.914 145.085 28.382 143.54 28.382C143.033 28.382 142.565 28.4073 142.134 28.458C141.703 28.4833 141.349 28.5213 141.07 28.572V38.794C141.425 39.022 141.881 39.212 142.438 39.364C143.021 39.516 143.603 39.592 144.186 39.592C146.871 39.592 148.214 37.7807 148.214 34.158ZM153.99 34.006C153.99 35.5513 153.8 36.9573 153.42 38.224C153.04 39.4907 152.483 40.58 151.748 41.492C151.013 42.404 150.101 43.1133 149.012 43.62C147.923 44.1267 146.669 44.38 145.25 44.38C144.465 44.38 143.73 44.304 143.046 44.152C142.362 44 141.703 43.7847 141.07 43.506V51.03H135.408V24.696C135.915 24.544 136.497 24.4047 137.156 24.278C137.815 24.126 138.499 23.9993 139.208 23.898C139.943 23.7967 140.677 23.7207 141.412 23.67C142.172 23.594 142.894 23.556 143.578 23.556C145.225 23.556 146.694 23.8093 147.986 24.316C149.278 24.7973 150.367 25.494 151.254 26.406C152.141 27.2927 152.812 28.382 153.268 29.674C153.749 30.966 153.99 32.41 153.99 34.006Z" fill="white"/>
<path d="M165.98 40.048C166.537 40.048 167.069 40.0353 167.576 40.01C168.082 39.9847 168.488 39.9467 168.792 39.896V35.602C168.564 35.5513 168.222 35.5007 167.766 35.45C167.31 35.3993 166.892 35.374 166.512 35.374C165.98 35.374 165.473 35.412 164.992 35.488C164.536 35.5387 164.13 35.6527 163.776 35.83C163.421 36.0073 163.142 36.248 162.94 36.552C162.737 36.856 162.636 37.236 162.636 37.692C162.636 38.5787 162.927 39.1993 163.51 39.554C164.118 39.8833 164.941 40.048 165.98 40.048ZM165.524 23.48C167.196 23.48 168.589 23.67 169.704 24.05C170.818 24.43 171.705 24.9747 172.364 25.684C173.048 26.3933 173.529 27.2547 173.808 28.268C174.086 29.2813 174.226 30.4087 174.226 31.65V43.43C173.415 43.6073 172.288 43.81 170.844 44.038C169.4 44.2913 167.652 44.418 165.6 44.418C164.308 44.418 163.13 44.304 162.066 44.076C161.027 43.848 160.128 43.4807 159.368 42.974C158.608 42.442 158.025 41.758 157.62 40.922C157.214 40.086 157.012 39.06 157.012 37.844C157.012 36.6787 157.24 35.6907 157.696 34.88C158.177 34.0693 158.81 33.4233 159.596 32.942C160.381 32.4607 161.28 32.1187 162.294 31.916C163.307 31.688 164.358 31.574 165.448 31.574C166.182 31.574 166.828 31.612 167.386 31.688C167.968 31.7387 168.437 31.8147 168.792 31.916V31.384C168.792 30.4213 168.5 29.6487 167.918 29.066C167.335 28.4833 166.322 28.192 164.878 28.192C163.915 28.192 162.965 28.268 162.028 28.42C161.09 28.5467 160.28 28.7367 159.596 28.99L158.874 24.43C159.203 24.3287 159.608 24.2273 160.09 24.126C160.596 23.9993 161.141 23.898 161.724 23.822C162.306 23.7207 162.914 23.6447 163.548 23.594C164.206 23.518 164.865 23.48 165.524 23.48Z" fill="white"/>
<path d="M179.346 24.696C180.308 24.4173 181.55 24.164 183.07 23.936C184.59 23.6827 186.186 23.556 187.858 23.556C189.555 23.556 190.961 23.784 192.076 24.24C193.216 24.6707 194.115 25.2913 194.774 26.102C195.432 26.9127 195.901 27.8753 196.18 28.99C196.458 30.1047 196.598 31.346 196.598 32.714V44H190.936V33.398C190.936 31.574 190.695 30.282 190.214 29.522C189.732 28.762 188.833 28.382 187.516 28.382C187.11 28.382 186.68 28.4073 186.224 28.458C185.768 28.4833 185.362 28.5213 185.008 28.572V44H179.346V24.696Z" fill="white"/>
<path d="M200.773 34.158C200.773 32.3847 201.038 30.8393 201.57 29.522C202.128 28.1793 202.85 27.0647 203.736 26.178C204.623 25.2913 205.637 24.62 206.777 24.164C207.942 23.708 209.132 23.48 210.348 23.48C213.186 23.48 215.428 24.354 217.075 26.102C218.721 27.8247 219.544 30.3707 219.544 33.74C219.544 34.0693 219.532 34.4367 219.507 34.842C219.481 35.222 219.456 35.564 219.43 35.868H206.587C206.713 37.0333 207.258 37.958 208.221 38.642C209.183 39.326 210.475 39.668 212.096 39.668C213.135 39.668 214.148 39.5793 215.137 39.402C216.15 39.1993 216.973 38.9587 217.607 38.68L218.367 43.278C218.062 43.43 217.657 43.582 217.15 43.734C216.644 43.886 216.074 44.0127 215.441 44.114C214.833 44.2407 214.174 44.342 213.464 44.418C212.755 44.494 212.046 44.532 211.337 44.532C209.538 44.532 207.967 44.266 206.624 43.734C205.307 43.202 204.205 42.48 203.318 41.568C202.457 40.6307 201.811 39.5287 201.38 38.262C200.975 36.9953 200.773 35.6273 200.773 34.158ZM214.072 31.992C214.047 31.5107 213.958 31.042 213.807 30.586C213.68 30.13 213.465 29.7247 213.161 29.37C212.882 29.0153 212.514 28.724 212.059 28.496C211.628 28.268 211.083 28.154 210.424 28.154C209.791 28.154 209.246 28.268 208.79 28.496C208.335 28.6987 207.954 28.9773 207.65 29.332C207.346 29.6867 207.106 30.1047 206.928 30.586C206.777 31.042 206.663 31.5107 206.587 31.992H214.072Z" fill="white"/>
<path d="M231.894 44.38C230.247 44.3547 228.905 44.1773 227.866 43.848C226.853 43.5187 226.042 43.0627 225.434 42.48C224.851 41.872 224.446 41.15 224.218 40.314C224.015 39.4527 223.914 38.49 223.914 37.426V15.424L229.576 14.512V36.286C229.576 36.7927 229.614 37.2487 229.69 37.654C229.766 38.0593 229.905 38.4013 230.108 38.68C230.336 38.9587 230.653 39.1867 231.058 39.364C231.463 39.5413 232.008 39.6553 232.692 39.706L231.894 44.38Z" fill="white"/>
<path d="M0 4C0 1.79086 1.79086 0 4 0H56C58.2091 0 60 1.79086 60 4V56C60 58.2091 58.2091 60 56 60H4C1.79086 60 0 58.2091 0 56V4Z" fill="#3349FF"/>
<path d="M21.9523 48.6438C20.1488 47.8718 18.6843 46.6968 17.5587 45.1187C16.4496 43.5477 15.7694 41.798 15.518 39.8698C15.2903 37.932 15.573 36.0366 16.3662 34.1835L17.3647 31.8506C17.4426 31.6686 17.5643 31.613 17.7298 31.6838L23.438 34.1271C23.5704 34.1838 23.5976 34.3031 23.5197 34.4851L22.5212 36.818C22.0467 37.9266 22.0082 39.0456 22.4057 40.175C22.8103 41.2879 23.5338 42.0674 24.5762 42.5136C25.6351 42.9668 26.7104 42.9474 27.802 42.4554C28.9006 41.9468 29.6801 41.1548 30.1404 40.0793C30.6716 38.8384 30.3247 37.4076 29.0998 35.787C28.9059 35.5083 28.6435 35.161 28.3124 34.7452C28.005 34.32 27.629 33.8262 27.1845 33.264C26.74 32.7018 26.3084 32.1549 25.8899 31.6233C25.4784 31.0753 25.0765 30.5508 24.6839 30.05C23.2982 28.1648 22.5009 26.2084 22.292 24.1809C22.1068 22.1439 22.4532 20.0996 23.3314 18.0479C24.1388 16.1617 25.3315 14.6558 26.9096 13.5302C28.4806 12.4211 30.1984 11.7468 32.0628 11.5073C33.9509 11.2583 35.7719 11.5091 37.5257 12.2598C39.3292 13.0318 40.7925 14.1867 41.9158 15.7246C43.0319 17.2791 43.7145 19.0004 43.9635 20.8885C44.229 22.7837 43.9617 24.6661 43.1614 26.5357L41.3767 30.7052C41.3201 30.8376 41.2256 30.8755 41.0932 30.8188L35.3849 28.3755C35.2526 28.3188 35.2147 28.2243 35.2714 28.092L37.0064 23.9012C37.5163 22.7099 37.5583 21.5827 37.1325 20.5194C36.7066 19.4562 35.9808 18.705 34.9549 18.2659C33.9125 17.8197 32.8491 17.8344 31.7646 18.3099C30.6801 18.7854 29.9042 19.5692 29.4368 20.6612C28.9623 21.7697 28.7973 22.7955 28.9419 23.7383C29.103 24.6882 29.6672 25.7715 30.6343 26.9881C30.7383 27.111 30.9736 27.4074 31.3401 27.8775C31.7066 28.3476 32.1086 28.8721 32.546 29.4509C33.0071 30.0202 33.4209 30.5399 33.7874 31.01C34.161 31.4636 34.3868 31.7364 34.4649 31.8286C35.7488 33.494 36.585 35.2223 36.9734 37.0135C37.3783 38.8117 37.1524 40.7118 36.2954 42.7138C35.4668 44.6497 34.2765 46.1957 32.7244 47.3521C31.1557 48.5013 29.4274 49.2004 27.5393 49.4494C25.6512 49.6984 23.7889 49.4299 21.9523 48.6438Z" fill="white"/>
</svg>
