<svg width="20" height="20" viewBox="0 0 20 20" fill="none" xmlns="http://www.w3.org/2000/svg">
<path d="M0 0H20V20H0V0Z" fill="#1B1C22"/>
<path fill-rule="evenodd" clip-rule="evenodd" d="M5.83038 11.9277L6.52565 9.84189L7.47434 10.1581L6.77907 12.2439C6.69402 12.4991 6.82603 12.7758 7.07785 12.8702L9.82443 13.9002C9.93762 13.9426 10.0624 13.9426 10.1756 13.9002L12.9221 12.8702C13.174 12.7758 13.306 12.4991 13.2209 12.2439L12.5257 10.1581L13.4743 9.84189L14.1696 11.9277C14.4247 12.6931 14.0287 13.5232 13.2733 13.8065L10.5267 14.8365C10.1871 14.9638 9.81289 14.9638 9.47331 14.8365L6.72672 13.8065C5.97127 13.5232 5.57524 12.6931 5.83038 11.9277ZM13 7C13 8.65685 11.6568 10 9.99999 10C8.34314 10 6.99999 8.65685 6.99999 7C6.99999 5.34315 8.34314 4 9.99999 4C11.6568 4 13 5.34315 13 7ZM9.99999 9C11.1046 9 12 8.10457 12 7C12 5.89543 11.1046 5 9.99999 5C8.89542 5 7.99999 5.89543 7.99999 7C7.99999 8.10457 8.89542 9 9.99999 9Z" fill="#909093"/>
</svg>
